<svg xmlns="http://www.w3.org/2000/svg" width="553" height="553" viewBox="0 0 553 553" version="1.1"><path d="M 223.667 75.667 C 223.300 76.033, 223 88.352, 223 103.041 C 223 124.556, 222.700 130.599, 221.457 134.122 C 218.152 143.491, 217.827 174.155, 220.947 182.360 C 221.526 183.884, 222 186.181, 222 187.465 C 222 188.749, 223.575 192.139, 225.500 195 C 229.720 201.271, 229.839 202.319, 226.250 201.633 C 224.738 201.344, 221.475 200.809, 219 200.444 C 209.307 199.016, 192.408 189.262, 183.305 179.842 C 179.475 175.879, 170.332 159.285, 168.514 153 C 166.640 146.519, 160.718 137.852, 155.442 133.869 C 150.346 130.021, 149.650 129.782, 144.746 130.202 C 136.143 130.939, 124.967 137.116, 106.376 151.410 C 85.244 167.657, 60.655 189.509, 47.765 203.497 C 31.831 220.789, 13.433 246.045, 7.140 259.266 C 0.185 273.878, -0.498 276.310, 1.493 279.349 C 4.299 283.632, 7.547 283.600, 13.882 279.226 C 20.619 274.576, 32.176 270.992, 40.421 270.997 C 46.096 271, 46.513 271.179, 50.421 275.294 C 53.339 278.365, 55.293 281.865, 57.288 287.591 C 60.623 297.166, 63.399 302, 65.564 302 C 66.441 302, 69.710 299.820, 72.829 297.156 C 90.061 282.435, 104.491 279.590, 115.900 288.663 C 121.254 292.921, 126.908 299.020, 126.962 300.595 C 127.036 302.742, 134.983 314, 136.425 314 C 137.232 314, 142.709 308.712, 148.595 302.250 C 161.885 287.658, 172.668 279.555, 179.943 278.693 C 190.411 277.453, 199.960 280.599, 205.418 287.085 C 207.751 289.857, 209.854 296.479, 208.752 297.581 C 208.484 297.850, 206.366 297.643, 204.046 297.122 C 198.530 295.882, 189.197 298.393, 182.698 302.863 C 173.922 308.902, 170.685 320.212, 173.356 335.510 C 174.682 343.105, 179.670 354.880, 194.957 386.500 C 196.553 389.800, 198.988 395.200, 200.369 398.500 C 201.750 401.800, 205.616 409.675, 208.960 416 C 212.304 422.325, 216.544 430.650, 218.383 434.500 C 230.332 459.519, 234.370 467.146, 236.594 468.895 C 240.288 471.801, 251.754 475.344, 257.500 475.354 C 363.342 475.550, 352.568 475.826, 359.895 472.727 C 371.147 467.968, 374.256 465.630, 392.500 448.206 C 398 442.953, 407.225 434.147, 413 428.636 C 418.775 423.126, 439.250 403.031, 458.500 383.982 C 493.436 349.410, 493.515 349.341, 501.500 346.031 C 515.139 340.377, 521.280 340.594, 524.798 346.855 C 528.381 353.230, 527.851 360.120, 523.086 369.113 C 511.020 391.884, 510.508 393.425, 513.557 397.777 C 514.760 399.496, 516.102 400, 519.471 400 C 523.202 400, 524.864 399.216, 531.019 394.554 C 541.402 386.687, 544.569 381.812, 549.197 366.579 C 550.877 361.047, 551.348 356.786, 551.415 346.527 C 551.495 334.264, 551.344 333.207, 548.843 328.500 C 544.463 320.257, 539.266 316.355, 528.325 313.097 C 514.781 309.063, 500.226 311.138, 485 319.274 C 479.775 322.066, 473.475 325.946, 471 327.897 C 464.547 332.984, 448.674 348.293, 433.048 364.500 C 387.734 411.500, 385.321 413.600, 365 423.736 C 357.305 427.575, 353.359 428.977, 350.230 428.987 C 345.959 429, 345.959 429, 347.840 425.250 C 350.426 420.096, 353.456 410.338, 358.157 392.027 C 360.350 383.487, 363.004 373.350, 364.055 369.500 C 372.615 338.145, 371.548 320.378, 360.360 307.968 C 353.613 300.484, 345.114 297.746, 335.528 299.969 C 333.344 300.475, 331.370 300.704, 331.143 300.477 C 330.001 299.334, 333.847 293.427, 338.506 289.169 C 344.469 283.719, 352.477 280.233, 361.106 279.331 C 365.690 278.852, 368.233 279.214, 373.633 281.115 C 379.315 283.115, 381.696 284.751, 388.375 291.250 C 392.756 295.513, 397.052 298.993, 397.920 298.984 C 398.789 298.975, 401.637 295.923, 404.249 292.202 C 410.677 283.046, 417.487 276.316, 423.500 273.178 C 427.492 271.095, 429.829 270.586, 435.088 270.650 C 440.773 270.719, 442.762 271.295, 449.600 274.853 C 453.959 277.120, 460.894 281.673, 465.012 284.970 C 469.131 288.267, 472.950 290.830, 473.500 290.665 C 474.050 290.501, 477.425 284.867, 481 278.146 C 484.575 271.425, 488.799 264.315, 490.387 262.345 C 494.325 257.460, 502.281 253.959, 509.857 253.777 C 517.036 253.604, 519.191 254.885, 532 266.936 C 543.867 278.101, 547.414 277.502, 543.043 265.069 C 538.830 253.087, 533.754 243.690, 521.400 225 C 503.943 198.593, 495.076 190.025, 453.749 159.635 C 433.480 144.730, 422.702 139, 414.937 139 C 403.092 139, 392.492 146.258, 377.417 164.689 C 365.604 179.133, 352.711 194.124, 350.386 196.117 C 339.482 205.469, 331.424 208.111, 320.022 206.073 C 311.699 204.586, 312.197 206.822, 315.899 187.581 C 319.001 171.460, 318.218 147.683, 314.021 130.500 C 312.946 126.100, 312.164 120.250, 312.283 117.500 C 312.475 113.074, 312.255 112.465, 310.364 112.195 C 308.885 111.984, 308.039 110.946, 307.614 108.818 C 307.022 105.859, 306.851 105.768, 302.999 106.384 C 299.863 106.886, 299 106.708, 299 105.559 C 299 103.123, 296.761 99, 295.438 99 C 294.755 99, 293.365 100.290, 292.348 101.867 C 291.332 103.444, 289.148 106.259, 287.496 108.121 C 284.493 111.508, 284.493 111.508, 270.883 111.363 C 262.704 111.275, 256.404 110.751, 255.093 110.050 C 253.893 109.408, 250.972 105.871, 248.602 102.191 C 243.760 94.672, 231.784 79.484, 228.593 76.817 C 226.368 74.956, 224.754 74.579, 223.667 75.667" stroke="none" fill="#040404" fill-rule="evenodd"/></svg>