<svg xmlns="http://www.w3.org/2000/svg" xml:space="preserve" viewBox="0 0 1024 1024"><path fill="#FF8000" d="M1.000006 560C1 529.645752 1 499.291534 1.409591 468.671509c.803213-1.947052 1.379052-3.609436 1.554942-5.313111.455644-4.413452.439845-8.892425 1.139828-13.260681 2.163374-13.500396 3.940575-27.108459 7.035483-40.402893 4.587191-19.704651 9.550679-39.37027 15.546632-58.68222 4.40514-14.188202 10.667234-27.804627 16.1975-41.637635 9.683815-24.222381 22.351253-46.918334 36.23547-68.904846 12.874855-20.388076 26.627113-40.229278 43.010025-58.017395 13.384033-14.531982 26.733383-29.158416 41.011276-42.786239 13.039154-12.445496 26.93428-24.07724 41.116211-35.222649 20.632233-16.214615 42.763687-30.28083 66.0242-42.471554 22.325104-11.70047 44.945649-22.781185 68.979737-30.652092 14.606781-4.783569 29.087555-10.029184 43.884918-14.128828 11.527313-3.193678 23.385132-5.398867 35.222687-7.220338 17.580993-2.705214 35.278106-4.651939 52.91037-7.035437C472.582642 2.759351 473.762512 1.666645 475 1c24.020905 0 48.041809 0 72.335327.413886.954163.796938 1.604431 1.438735 2.321655 1.525143 17.043213 2.053377 34.138916 3.726223 51.131104 6.132605 21.383545 3.028271 42.420532 7.934141 62.831543 14.96138 19.26947 6.634228 38.491211 13.570792 57.205139 21.605974 16.408936 7.045502 32.708679 14.775292 47.928345 24.053669 19.815002 12.079766 38.830688 25.556458 57.58435 39.261193 12.415406 9.072845 24.345093 18.997581 35.44928 29.630073 13.870606 13.281357 27.210327 27.213822 39.775452 41.733841 11.838806 13.680741 22.944702 28.090393 33.316101 42.918625 9.568054 13.679764 18.394043 27.983078 26.342773 42.663727 9.281006 17.141388 18.284485 34.577484 25.526734 52.640167 8.251037 20.578705 15.032715 41.811402 21.294739 63.100586 4.346191 14.775971 7.202087 30.046021 9.858886 45.246491 2.334595 13.356933 3.443299 26.927032 5.204041 40.38858.084533.64621 1.238525 1.152588 1.894531 1.72406 0 30.020905 0 60.041809-.409668 90.326599-.783447.778809-1.42218 1.260071-1.492554 1.813538-1.72937 13.608154-3.093811 27.269958-5.146484 40.827942-3.428589 22.646057-9.007813 44.802673-15.815552 66.679931-10.345459 33.245728-24.068481 65.023438-40.788086 95.52594-3.966125 7.235657-7.872864 14.557556-12.509216 21.361145-10.328919 15.157227-20.715027 30.305969-31.81189 44.899964-9.395446 12.356384-19.285522 24.433776-29.917114 35.730774-16.518127 17.552124-33.679687 34.539306-52.966797 49.140075-14.137268 10.702271-27.927063 22.006775-42.866577 31.47284-23.374573 14.810791-47.449829 28.488586-73.079529 39.299255-21.483948 9.061951-43.08374 17.853027-65.683349 23.505981-21.08014 5.273011-42.545777 9.00232-63.823182 13.499207-.668457.141296-1.131286 1.25592-1.690002 1.916809-4.68927 0-9.378479 0-14.534058-.375977-.518921-1.123535-.571472-1.871276-.544128-3.081909.092651-1.462341.116516-2.461731.116577-3.461059.001587-203.469055.002014-406.93805-.003784-610.407074-.000122-2.832459.249756-5.715973-.18103-8.488037-1.425904-9.176423-2.3844-18.512329-4.835816-27.425812-6.604919-24.015778-33.335327-45.34787-61.054596-45.085938C414.48526 327.538727 322.99408 327 231.508011 327h-5.763474v176.063751h167.185151v7.028534c0 164.974915-.000947 329.949768.009704 494.924683.000153 2.327698.146668 4.655456.153626 7.353088-.828675 4.610047-3.767334 1.426026-4.727417 1.153992-15.229767-4.315857-30.610291-8.304138-45.444214-13.759827-17.74234-6.525268-35.202545-13.924438-52.417511-21.752991-28.122162-12.788574-54.252045-29.179565-79.058243-47.441955-16.420212-12.088501-32.036087-25.384522-47.164276-39.07666-12.151764-10.998291-23.246491-23.203247-34.399368-35.253052-7.660378-8.276489-15.062127-16.872681-21.797226-25.908997-15.018395-20.149963-29.77813-40.540039-41.281525-62.982605-9.824318-19.166626-20.524799-38.049438-28.351891-58.031494-9.173412-23.41925-16.088831-47.766235-23.132418-71.958679-3.709511-12.740967-6.045244-25.937988-8.190489-39.061706-1.950631-11.933167-2.771132-24.049622-4.215045-36.070252-.096933-.806946-1.250995-1.486877-1.913389-2.22583m545.370905-441.865181c-29.261475-28.328331-63.715241-37.93058-102.324555-24.697685-65.139465 22.325775-87.558929 99.715606-45.70282 154.424148 42.858918 56.019272 132.7706 47.646439 164.447419-15.313873 19.484619-38.72728 13.60736-80.729782-16.420044-114.41259z"/><path fill="#FFF" d="M393.164246 1012.000122c-.078186-2.327698-.224701-4.655456-.224854-6.983154-.010651-164.974915-.009704-329.949768-.009704-494.924683v-7.028534H225.744537V327h5.763474c91.486069 0 182.977249.538727 274.455154-.325806 27.719269-.261932 54.449677 21.07016 61.054596 45.085938 2.451416 8.913483 3.409912 18.249389 4.835816 27.425812.430786 2.772064.180908 5.655578.18103 8.488037.005798 203.469024.005371 406.938019.003784 610.407074-.000061.999328-.023926 1.998718-.535705 3.459167-3.86261.794129-7.247742.995239-10.577271 1.537476-1.051636.171264-1.954529 1.255676-2.925415 1.922302-29.687561 0-59.375122 0-89.228455-.378052-.676147-.779968-1.154541-1.479858-1.70169-1.538574-6.972626-.747864-13.983399-1.194519-20.928284-2.133423-9.772217-1.321167-19.512878-2.898315-29.237854-4.53894-7.935333-1.338684-15.827911-2.931031-23.739471-4.410889z"/><path fill="#FFFFFE" d="M546.612305 118.391655c29.78601 33.425972 35.663269 75.428474 16.17865 114.155754-31.676819 62.960312-121.588501 71.333145-164.447419 15.313873-41.856109-54.708542-19.436645-132.098373 45.70282-154.424148 38.609314-13.232895 73.06308-3.630646 102.565949 24.954521z"/></svg>