<svg xmlns="http://www.w3.org/2000/svg" xml:space="preserve" width="800" height="800" fill-rule="evenodd" stroke-linejoin="round" stroke-miterlimit="2" clip-rule="evenodd" viewBox="0 0 32 32"><circle cx="9.5" cy="202.5" r="6.5" fill="#90e0ef" transform="translate(4.23077 -174.9231) scale(.92308)"/><path fill="#90e0ef" d="M19.999992 24c0-.53-.21083325-1.039-.5858331-1.414S18.53082592 22 17.9999928 22H6.9999972c-.53083312 0-1.03916625.211-1.4141661.586S4.999998 23.47 4.999998 24v4c0 .53.21083325 1.039.5858331 1.414S6.46916408 30 6.9999972 30h10.9999956c.53083312 0 1.03916625-.211 1.4141661-.586s.5858331-.884.5858331-1.414v-4Z"/><circle cx="24" cy="200" r="6" fill="#90e0ef" transform="translate(-3 -192)"/><path fill="#1990a7" d="M21 24c0-.796-.316-1.559-.879-2.121C19.559 21.316 18.796 21 18 21H7c-.796 0-1.559.316-2.121.879C4.316 22.441 4 23.204 4 24v4c0 .796.316 1.559.879 2.121C5.441 30.684 6.204 31 7 31h11c.796 0 1.559-.316 2.121-.879.563-.562.879-1.325.879-2.121v-4Zm-2 0v4c0 .265-.105.52-.293.707-.187.188-.442.293-.707.293H7c-.265 0-.52-.105-.707-.293C6.105 28.52 6 28.265 6 28v-4c0-.265.105-.52.293-.707C6.48 23.105 6.735 23 7 23h11c.265 0 .52.105.707.293.188.187.293.442.293.707ZM14.591 5.182C14.08 5.063 13.547 5 13 5c-3.863 0-7 3.137-7 7s3.137 7 7 7c2.861 0 5.323-1.72 6.409-4.182.511.119 1.044.182 1.591.182 3.863 0 7-3.137 7-7s-3.137-7-7-7c-2.861 0-5.324 1.72-6.409 4.182Zm-.535 1.93C13.716 7.039 13.362 7 13 7c-2.76 0-5 2.24-5 5s2.24 5 5 5c2.015 0 3.753-1.194 4.544-2.912C15.428 12.883 14 10.607 14 8c0-.301.019-.598.056-.888ZM21 3c2.76 0 5 2.24 5 5s-2.24 5-5 5-5-2.24-5-5 2.24-5 5-5Zm0 7c.552 0 1 .448 1 1s-.448 1-1 1-1-.448-1-1 .448-1 1-1Zm-1-5v3c0 .552.448 1 1 1s1-.448 1-1V5c0-.552-.448-1-1-1s-1 .448-1 1Z"/></svg>