<svg xmlns="http://www.w3.org/2000/svg" xml:space="preserve" viewBox="0 0 512 512"><path fill="gray" d="M83.017 205.198h345.955v203.256H83.017z"/><path fill="#b3b3b3" d="M459.638 408.448h-30.655V205.192h30.655v-41.338h20.032v-34.26H512L256.006 20.863 0 129.593h32.342v34.26h20.032v41.338h30.643v203.256H52.374v41.338H22.448v41.35h467.117v-41.35h-29.926v-41.337zm-231.179 0H138.11V205.192h90.349v203.256zm145.431 0h-90.337V205.192h90.337v203.256z"/><path fill="#999" d="M83.017 205.186h55.093v29.283H83.017zm145.442 0h55.093v29.283h-55.093zm145.431 0h55.093v29.283H373.89z"/><path fill="#666" d="M138.11 205.198h90.349v43.851H138.11zm145.443 0h90.349v43.851h-90.349z"/><circle cx="256.006" cy="79.799" r="24.342" fill="#ccc"/><path fill="#999" d="M52.374 163.86h407.264v12.688H52.374zm0 273.233h407.264v12.688H52.374zm0-38.898h407.264v12.688H52.374zM32.342 129.6H479.67v12.688H32.342z"/></svg>