<svg xmlns="http://www.w3.org/2000/svg" xml:space="preserve" viewBox="0 0 342.408 342.408"><path fill="#9fcba5" d="M154.076 184.799h34.255v121.168h-34.255z"/><path fill="#2b7b57" d="M228.947 288.152c-2.807 0-5.607.218-8.379.653-10.9-10.023-24.644-16.5-39.245-18.563-3.336-.472-6.716-.714-10.121-.714v.003c-3.403 0-6.783.24-10.121.712-14.599 2.063-28.343 8.54-39.242 18.563-2.77-.435-5.572-.653-8.379-.653-22.147 0-41.236 13.337-49.658 32.402-4.544 10.286 2.979 21.853 14.224 21.853h186.356c11.245 0 18.768-11.566 14.224-21.853-8.423-19.066-27.512-32.403-49.659-32.403z"/><path fill="#49b86e" d="M245.469 124.952c.95-3.681 1.457-7.54 1.457-11.517 0-22.47-16.139-41.159-37.455-45.139 3.698-6.619 5.814-14.243 5.814-22.364C215.284 20.565 194.719 0 169.352 0S123.42 20.565 123.42 45.932c0 2.456.198 4.865.569 7.217-.286-.005-.569-.022-.857-.022-25.368 0-45.932 20.565-45.932 45.932 0 14.145 6.399 26.792 16.454 35.218-12.984 9.847-21.376 25.435-21.376 42.987 0 29.781 24.143 53.924 53.924 53.924 20.398 0 38.146-11.328 47.309-28.034 9.861 12.77 25.312 21.003 42.694 21.003 29.781 0 53.924-24.143 53.924-53.924 0-18.989-9.825-35.674-24.66-45.281z"/></svg>